<svg width="0" height="0" class="hidden">
  <symbol    xmlns="http://www.w3.org/2000/svg" viewBox="0 0 16 16" id="search">
    <path d="M11.7422 10.3439C12.5329 9.2673 13 7.9382 13 6.5C13 2.91015 10.0899 0 6.5 0C2.91015 0 0 2.91015 0 6.5C0 10.0899 2.91015 13 6.5 13C7.93858 13 9.26801 12.5327 10.3448 11.7415L10.3439 11.7422C10.3734 11.7822 10.4062 11.8204 10.4424 11.8566L14.2929 15.7071C14.6834 16.0976 15.3166 16.0976 15.7071 15.7071C16.0976 15.3166 16.0976 14.6834 15.7071 14.2929L11.8566 10.4424C11.8204 10.4062 11.7822 10.3734 11.7422 10.3439ZM12 6.5C12 9.53757 9.53757 12 6.5 12C3.46243 12 1 9.53757 1 6.5C1 3.46243 3.46243 1 6.5 1C9.53757 1 12 3.46243 12 6.5Z" ></path>
  </symbol>
  <symbol   xmlns="http://www.w3.org/2000/svg" viewBox="0 0 16 16" id="list">
    <path fill-rule="evenodd" clip-rule="evenodd" d="M2.5 11.5C2.5 11.2239 2.72386 11 3 11H13C13.2761 11 13.5 11.2239 13.5 11.5C13.5 11.7761 13.2761 12 13 12H3C2.72386 12 2.5 11.7761 2.5 11.5Z" ></path>
    <path fill-rule="evenodd" clip-rule="evenodd" d="M2.5 7.5C2.5 7.22386 2.72386 7 3 7H13C13.2761 7 13.5 7.22386 13.5 7.5C13.5 7.77614 13.2761 8 13 8H3C2.72386 8 2.5 7.77614 2.5 7.5Z" ></path>
    <path fill-rule="evenodd" clip-rule="evenodd" d="M2.5 3.5C2.5 3.22386 2.72386 3 3 3H13C13.2761 3 13.5 3.22386 13.5 3.5C13.5 3.77614 13.2761 4 13 4H3C2.72386 4 2.5 3.77614 2.5 3.5Z" ></path>
  </symbol>
   <symbol  xmlns="http://www.w3.org/2000/svg" viewBox="0 0 16 16" id="x">
    <path d="M2.14645 2.85355C1.95118 2.65829 1.95118 2.34171 2.14645 2.14645C2.34171 1.95118 2.65829 1.95118 2.85355 2.14645L8 7.29289L13.1464 2.14645C13.3417 1.95118 13.6583 1.95118 13.8536 2.14645C14.0488 2.34171 14.0488 2.65829 13.8536 2.85355L8.70711 8L13.8536 13.1464C14.0488 13.3417 14.0488 13.6583 13.8536 13.8536C13.6583 14.0488 13.3417 14.0488 13.1464 13.8536L8 8.70711L2.85355 13.8536C2.65829 14.0488 2.34171 14.0488 2.14645 13.8536C1.95119 13.6583 1.95119 13.3417 2.14645 13.1464L7.29289 8L2.14645 2.85355Z" ></path>
  </symbol>
  <symbol  xmlns="http://www.w3.org/2000/svg" viewBox="0 0 16 16" id="chevron-left">
    <path fill-rule="evenodd" clip-rule="evenodd" d="M11.3536 1.64645C11.5488 1.84171 11.5488 2.15829 11.3536 2.35355L5.70711 8L11.3536 13.6464C11.5488 13.8417 11.5488 14.1583 11.3536 14.3536C11.1583 14.5488 10.8417 14.5488 10.6464 14.3536L4.64645 8.35355C4.45118 8.15829 4.45118 7.84171 4.64645 7.64645L10.6464 1.64645C10.8417 1.45118 11.1583 1.45118 11.3536 1.64645Z" ></path>
  </symbol>
  <symbol  xmlns="http://www.w3.org/2000/svg" viewBox="0 0 16 16" id="chevron-right">
    <path fill-rule="evenodd" clip-rule="evenodd" d="M4.64645 1.64645C4.84171 1.45118 5.15829 1.45118 5.35355 1.64645L11.3536 7.64645C11.5488 7.84171 11.5488 8.15829 11.3536 8.35355L5.35355 14.3536C5.15829 14.5488 4.84171 14.5488 4.64645 14.3536C4.45118 14.1583 4.45118 13.8417 4.64645 13.6464L10.2929 8L4.64645 2.35355C4.45118 2.15829 4.45118 1.84171 4.64645 1.64645Z" ></path>
  </symbol>
  <symbol  xmlns="http://www.w3.org/2000/svg" viewBox="0 0 16 16" id="chevron-down">
    <path fill-rule="evenodd" clip-rule="evenodd" d="M1.64645 4.64645C1.84171 4.45118 2.15829 4.45118 2.35355 4.64645L8 10.2929L13.6464 4.64645C13.8417 4.45118 14.1583 4.45118 14.3536 4.64645C14.5488 4.84171 14.5488 5.15829 14.3536 5.35355L8.35355 11.3536C8.15829 11.5488 7.84171 11.5488 7.64645 11.3536L1.64645 5.35355C1.45118 5.15829 1.45118 4.84171 1.64645 4.64645Z" ></path>
  </symbol>
</svg>  

